<?xml version="1.0" standalone="no"?>
<!DOCTYPE svg PUBLIC "-//W3C//DTD SVG 20010904//EN"
 "http://www.w3.org/TR/2001/REC-SVG-20010904/DTD/svg10.dtd">
<svg version="1.0" xmlns="http://www.w3.org/2000/svg"
 width="1135.000000pt" height="1138.000000pt" viewBox="0 0 1135.000000 1138.000000"
 preserveAspectRatio="xMidYMid meet">

<g transform="translate(0.000000,1138.000000) scale(0.100000,-0.100000)"
fill="#000000" stroke="none">
<path d="M6465 10230 c-204 -31 -417 -91 -612 -173 -67 -29 -120 -53 -118 -55
1 -2 30 4 63 12 286 75 628 75 849 1 309 -104 528 -331 618 -640 32 -110 58
-307 53 -402 -2 -39 0 -69 4 -67 23 14 -8 -195 -53 -366 -53 -198 -161 -456
-266 -635 l-29 -50 25 -79 26 -79 48 -12 c26 -7 61 -25 77 -40 144 -138 -14
-369 -195 -286 -48 22 -69 44 -90 94 -30 73 -8 148 60 203 34 28 35 31 25 64
-6 19 -13 49 -14 65 -2 17 -43 166 -91 333 l-87 303 63 210 c34 115 59 212 56
215 -2 3 -60 -22 -127 -56 l-123 -62 -215 52 c-119 28 -219 53 -224 56 -4 3
-8 16 -8 30 0 14 -7 39 -16 57 -76 151 -272 166 -369 29 -27 -39 -30 -52 -30
-116 0 -62 4 -78 28 -114 15 -23 46 -54 69 -69 35 -24 52 -28 107 -27 72 0 95
9 150 59 l37 33 228 -58 c126 -33 230 -60 231 -62 2 -2 62 -201 134 -443 l132
-439 -55 -81 c-191 -277 -510 -608 -781 -811 -466 -349 -922 -541 -1365 -574
-294 -23 -554 35 -752 166 -85 56 -200 170 -253 250 -82 124 -144 298 -168
474 l-13 95 -13 -128 c-28 -264 17 -557 119 -775 157 -335 436 -544 840 -629
120 -25 483 -25 620 0 284 53 507 126 788 258 507 238 1062 691 1434 1168 471
606 719 1201 744 1786 14 319 -59 609 -213 842 -55 84 -206 233 -294 290 -147
95 -342 166 -533 192 -119 17 -382 12 -521 -9z"/>
<path d="M5110 10035 c0 -3 47 -75 104 -158 l104 -152 -40 -90 c-22 -49 -43
-94 -47 -98 -4 -4 -97 -35 -207 -69 -109 -33 -200 -61 -201 -63 -3 -1 205
-507 210 -511 2 -2 63 20 370 133 70 25 127 51 127 56 0 5 -45 103 -100 217
-55 115 -100 214 -100 220 0 9 57 155 64 167 1 1 82 16 179 34 l177 31 130
-48 130 -49 0 -43 c0 -145 178 -225 286 -129 47 40 64 76 64 132 0 87 -58 160
-138 174 -60 11 -96 0 -167 -53 -11 -9 -185 99 -185 115 0 4 10 9 23 12 17 3
8 10 -43 34 -94 45 -248 90 -380 112 -122 20 -360 38 -360 26z m1104 -355 c25
-9 43 -49 37 -80 -10 -49 -82 -68 -116 -30 -26 29 -24 79 4 102 26 21 39 22
75 8z"/>
<path d="M4316 9846 c-81 -41 -156 -81 -164 -90 -15 -15 -12 -36 31 -254 27
-130 51 -240 55 -244 7 -6 418 184 436 202 7 7 -83 230 -177 438 -6 12 -15 22
-21 22 -6 0 -78 -33 -160 -74z"/>
<path d="M3572 9147 c-34 -57 -77 -138 -97 -181 -40 -88 -110 -292 -121 -350
l-7 -40 26 20 c14 10 87 66 162 124 135 104 136 105 130 140 -3 19 -8 115 -12
213 -3 97 -9 177 -13 177 -4 0 -34 -46 -68 -103z"/>
<path d="M3975 8949 c-105 -78 -192 -144 -195 -146 -11 -10 64 -449 80 -466 5
-6 409 214 438 239 2 1 -10 51 -27 111 -16 59 -46 171 -66 248 -19 77 -37 144
-38 148 -1 4 -88 -56 -192 -134z"/>
<path d="M3494 8601 c-134 -101 -173 -135 -178 -157 -9 -40 -20 -434 -12 -434
6 0 434 246 444 256 2 1 -8 66 -22 143 -14 78 -31 181 -38 231 -6 49 -14 90
-17 89 -3 0 -83 -58 -177 -128z"/>
<path d="M4315 8461 c-6 -5 -98 -56 -205 -115 -108 -58 -203 -111 -212 -118
-15 -12 -15 -20 8 -108 24 -90 99 -322 112 -347 5 -8 82 20 247 88 131 55 241
102 243 104 2 2 -23 79 -56 172 -33 92 -72 205 -87 251 -26 82 -32 90 -50 73z"/>
<path d="M3702 7525 c-123 -46 -226 -85 -228 -87 -13 -13 187 -338 208 -338 6
0 81 21 167 46 86 25 186 55 222 66 l66 19 -62 122 c-34 67 -75 152 -91 190
-18 42 -34 67 -44 66 -8 0 -116 -38 -238 -84z"/>
<path d="M4665 7270 c-66 -16 -176 -41 -245 -56 -69 -15 -127 -29 -129 -30 -8
-7 211 -335 259 -387 7 -8 498 58 507 67 3 2 -34 68 -81 147 -47 79 -103 176
-123 216 -23 44 -44 73 -53 72 -8 -1 -69 -14 -135 -29z"/>
<path d="M3943 7087 c-117 -29 -213 -55 -213 -59 0 -13 164 -180 241 -244 l79
-66 197 27 c109 15 200 29 202 31 1 1 -35 54 -82 116 -47 62 -104 143 -127
181 -31 50 -48 67 -64 66 -11 0 -117 -24 -233 -52z"/>
<path d="M5290 4807 l0 -364 -46 45 c-26 24 -77 58 -113 76 -59 28 -75 31
-156 30 -114 -1 -184 -26 -259 -95 -104 -95 -150 -199 -150 -339 -1 -106 20
-177 76 -260 82 -124 203 -185 351 -178 101 4 173 35 247 104 l50 47 0 -67 0
-66 70 0 70 0 -3 713 -2 712 -67 3 -68 3 0 -364z m-158 -380 c100 -58 153
-150 153 -267 0 -89 -30 -163 -90 -222 -87 -86 -218 -108 -328 -55 -133 66
-197 223 -152 374 20 66 93 148 160 180 43 21 61 24 131 20 65 -3 90 -8 126
-30z"/>
<path d="M8960 4455 l0 -715 69 0 69 0 4 248 c4 202 7 255 22 292 45 118 113
171 230 177 91 5 132 -14 164 -77 21 -43 22 -53 22 -342 l0 -298 70 0 70 0 0
294 c0 264 -2 300 -20 358 -25 81 -73 138 -147 174 -47 23 -69 28 -137 28
-101 0 -155 -22 -226 -93 l-50 -50 0 359 0 360 -70 0 -70 0 0 -715z"/>
<path d="M1887 5105 c-8 -25 -297 -1349 -297 -1358 0 -4 31 -7 69 -7 63 0 69
2 73 23 44 223 194 885 198 880 4 -5 91 -225 195 -490 103 -265 191 -481 194
-478 4 2 92 222 196 489 104 267 191 484 193 482 1 -2 47 -205 101 -450 54
-246 101 -449 104 -452 2 -3 34 -4 69 -2 l65 3 -32 145 c-18 80 -85 389 -151
688 -65 298 -121 537 -125 530 -4 -7 -98 -251 -210 -543 -111 -291 -205 -533
-208 -537 -3 -4 -46 97 -95 225 -49 128 -140 367 -203 532 -64 165 -119 309
-123 320 -7 20 -7 20 -13 0z"/>
<path d="M6220 5050 c-150 -21 -254 -73 -366 -185 -68 -68 -89 -97 -127 -176
-25 -52 -51 -119 -58 -149 -19 -78 -16 -250 5 -330 57 -210 229 -396 427 -461
62 -20 94 -24 199 -24 105 0 137 4 199 24 144 47 299 177 369 308 17 33 32 66
32 72 0 7 -25 11 -70 11 l-69 0 -40 -59 c-68 -100 -189 -184 -302 -210 -62
-15 -185 -13 -244 3 -172 46 -321 196 -366 369 -33 123 -19 278 32 380 60 118
181 224 304 268 82 29 214 29 306 0 112 -35 229 -126 284 -219 19 -31 21 -32
92 -32 40 0 73 2 73 5 0 3 -13 32 -29 63 -118 233 -395 379 -651 342z"/>
<path d="M3263 4893 c-13 -2 -32 -16 -43 -30 -44 -56 -6 -137 65 -137 72 0
111 85 63 138 -25 27 -51 35 -85 29z"/>
<path d="M3995 4594 c-85 -22 -142 -59 -190 -123 l-25 -35 0 72 0 72 -65 0
-65 0 0 -420 0 -420 65 0 65 0 0 193 c0 279 22 378 101 455 50 50 86 65 164
70 61 3 74 1 104 -20 19 -12 44 -41 55 -63 20 -37 21 -59 24 -337 l3 -298 65
0 65 0 -3 318 c-3 309 -4 318 -27 369 -26 59 -91 125 -147 148 -38 16 -155 28
-189 19z"/>
<path d="M7360 4587 c-103 -30 -175 -82 -233 -170 -92 -138 -103 -328 -29
-473 36 -71 117 -150 190 -186 62 -31 73 -33 172 -33 94 0 111 3 160 27 30 15
76 48 103 73 l47 46 0 -66 0 -65 70 0 70 0 0 420 0 420 -70 0 -70 0 0 -66 0
-66 -55 50 c-33 31 -78 59 -113 73 -69 26 -180 34 -242 16z m235 -151 c29 -13
70 -45 97 -75 61 -67 82 -130 76 -225 -8 -116 -65 -204 -166 -253 -74 -36
-175 -38 -245 -4 -87 42 -157 141 -172 242 -14 94 41 224 119 284 78 59 203
73 291 31z"/>
<path d="M8337 4589 c-118 -28 -191 -103 -204 -209 -8 -71 4 -116 43 -160 43
-47 99 -74 233 -112 121 -34 171 -57 200 -94 42 -54 13 -142 -56 -171 -44 -18
-156 -20 -198 -3 -42 16 -83 57 -96 97 l-11 33 -73 0 -73 0 10 -37 c27 -98 91
-168 182 -200 75 -26 232 -23 306 5 115 45 170 120 170 232 0 120 -61 192
-195 231 -194 56 -236 71 -264 95 -34 29 -47 76 -32 116 33 87 212 101 280 22
17 -19 31 -41 31 -49 0 -12 16 -15 75 -15 41 0 75 2 75 5 0 2 -9 28 -20 58
-21 55 -64 104 -115 130 -68 33 -187 45 -268 26z"/>
<path d="M3220 4160 l0 -420 65 0 65 0 0 420 0 420 -65 0 -65 0 0 -420z"/>
<path d="M3513 3008 c7 -4 71 -7 142 -6 141 1 122 6 -47 10 -58 2 -101 0 -95
-4z"/>
<path d="M4168 3007 c-7 -8 -20 -12 -29 -10 -10 3 -23 -7 -35 -25 -10 -17 -23
-30 -29 -30 -5 0 -11 -6 -13 -14 -2 -9 0 -8 7 2 8 12 11 12 11 1 0 -11 3 -11
16 0 15 12 16 11 11 -6 -4 -11 -2 -27 4 -35 9 -13 10 -13 8 0 -4 37 3 49 39
63 20 9 29 16 20 16 -25 1 -22 21 3 21 11 0 18 4 14 9 -3 5 3 12 12 14 14 4
13 5 -4 6 -12 0 -28 -5 -35 -12z m-15 -30 c2 -7 -6 -18 -19 -24 -19 -9 -24 -8
-24 3 0 8 5 14 11 14 5 0 7 5 4 10 -3 6 0 10 8 10 8 0 17 -6 20 -13z"/>
<path d="M5964 3010 c-30 -12 -39 -29 -20 -36 9 -3 13 -10 10 -15 -9 -15 -20
-10 -33 14 -11 20 -10 13 5 -30 5 -15 3 -15 -10 1 -9 11 -16 14 -16 7 0 -7 -4
-10 -9 -6 -5 3 -13 -4 -16 -16 -4 -12 -2 -24 4 -28 6 -4 13 -47 16 -96 3 -49
8 -91 11 -94 4 -3 4 39 1 94 -4 67 -3 93 3 80 l10 -20 -3 20 c-3 27 21 54 67
74 32 14 36 19 22 24 -10 4 -15 3 -11 -3 3 -6 -2 -10 -13 -10 -35 0 -32 13 5
31 26 12 32 17 18 18 -11 0 -30 -4 -41 -9z m-62 -102 c-6 -6 -12 -4 -16 7 -3
9 -2 13 4 10 6 -3 10 0 11 7 0 10 2 10 6 0 3 -8 1 -18 -5 -24z"/>
<path d="M6473 3013 c-7 -2 -13 -11 -13 -19 0 -16 15 -17 45 -4 19 8 19 9 -3
9 -13 1 -20 5 -17 11 7 11 6 11 -12 3z"/>
<path d="M7175 3011 c17 -3 29 -11 28 -16 -2 -10 -35 -22 -65 -24 -29 -2 -20
17 10 22 15 2 8 4 -18 4 -38 0 -50 -5 -76 -32 -26 -26 -31 -39 -31 -81 0 -31
2 -37 4 -16 6 46 23 39 24 -10 l1 -43 8 40 c4 22 5 41 1 43 -33 13 -37 52 -5
52 8 0 14 4 14 9 0 11 129 9 147 -2 6 -4 13 -3 15 2 1 5 12 3 23 -6 13 -10 16
-17 8 -20 -7 -2 -9 -12 -6 -20 6 -15 7 -14 13 2 5 15 9 12 23 -16 14 -29 17
-31 17 -11 0 13 4 20 10 17 6 -3 7 1 4 10 -5 12 -9 13 -21 4 -12 -11 -13 -8
-8 17 4 18 3 24 -2 17 -7 -10 -13 -8 -25 6 -9 11 -14 22 -11 25 9 8 -63 36
-89 35 -18 -1 -17 -3 7 -8z m68 -21 c15 0 -14 -20 -29 -20 -6 0 -11 7 -11 15
0 10 6 14 14 10 8 -3 20 -5 26 -5z m-136 -6 c-3 -3 -12 -4 -19 -1 -8 3 -5 6 6
6 11 1 17 -2 13 -5z"/>
<path d="M7718 3013 c7 -3 16 -2 19 1 4 3 -2 6 -13 5 -11 0 -14 -3 -6 -6z"/>
<path d="M7780 3013 c-46 -14 -45 -13 -30 -24 11 -7 6 -8 -14 -3 -17 4 -27 3
-23 -3 3 -5 -4 -15 -15 -22 -18 -11 -20 -11 -15 3 4 9 1 16 -6 17 -7 0 -3 4 8
9 18 8 18 9 2 9 -10 1 -22 -9 -27 -21 -5 -13 -9 -19 -9 -15 -1 5 -8 2 -16 -7
-16 -16 -20 -30 -6 -22 15 10 21 -22 21 -110 0 -70 -3 -84 -16 -84 -12 0 -15
10 -14 43 3 68 0 111 -6 104 -10 -10 -5 -192 6 -195 6 -2 10 -11 10 -19 0 -9
-6 -13 -15 -9 -13 5 -13 2 1 -19 8 -13 21 -22 29 -19 7 3 16 1 20 -5 3 -6 -2
-11 -12 -11 -16 -1 -16 -2 2 -12 11 -7 28 -14 38 -15 17 -3 17 -2 3 13 -22 21
-20 41 2 22 20 -18 112 -31 112 -16 0 6 7 7 16 4 11 -4 15 -2 11 8 -4 10 2 13
23 12 27 -2 49 18 35 32 -3 3 -5 0 -5 -6 0 -7 -5 -12 -11 -12 -6 0 -8 10 -5
23 3 12 3 16 0 9 -3 -6 -10 -10 -15 -6 -5 3 -9 2 -8 -3 3 -19 -2 -34 -10 -29
-4 3 -17 -1 -27 -9 -44 -33 -151 1 -179 57 -19 39 -19 45 0 45 10 0 15 -11 15
-33 0 -20 6 -34 16 -38 14 -5 15 -4 5 8 -9 10 -12 54 -12 137 1 78 -3 126 -10
135 -9 11 -8 14 5 14 9 0 16 -5 16 -11 0 -6 14 -1 31 12 24 16 40 20 70 16 37
-5 39 -4 22 10 -17 13 -16 14 12 8 38 -8 43 -14 25 -25 -10 -7 -11 -10 -2 -10
6 0 12 -8 12 -17 0 -13 6 -9 19 12 21 35 21 34 -9 40 -13 2 -30 11 -39 18 -9
8 -23 12 -31 10z"/>
<path d="M8476 3008 c5 -7 1 -9 -12 -6 -25 6 -43 -12 -34 -37 4 -13 9 -15 14
-7 4 7 4 17 0 24 -5 7 -3 8 5 3 8 -4 10 -17 6 -34 l-6 -26 16 23 c10 13 14 26
11 29 -3 3 2 11 11 18 14 11 14 12 -1 18 -11 5 -15 3 -10 -5z"/>
<path d="M2918 2985 c5 -28 17 -33 26 -9 9 24 6 42 -4 19 -7 -17 -9 -17 -9 -2
-1 9 -5 17 -10 17 -4 0 -6 -11 -3 -25z"/>
<path d="M2988 3003 c18 -2 45 -2 60 0 15 2 0 4 -33 4 -33 0 -45 -2 -27 -4z"/>
<path d="M3113 3003 c20 -2 54 -2 75 0 20 2 3 4 -38 4 -41 0 -58 -2 -37 -4z"/>
<path d="M4232 3001 c-11 -7 -10 -9 3 -14 9 -4 13 -3 10 3 -7 12 2 12 30 0 18
-7 17 -8 -9 -15 l-29 -8 24 -12 c12 -7 29 -11 36 -8 7 3 13 0 13 -6 0 -6 -4
-11 -9 -11 -4 0 -6 -11 -3 -25 4 -24 32 -36 32 -14 0 5 -4 7 -10 4 -6 -3 -10
4 -10 16 0 26 4 24 23 -14 l15 -28 4 30 c2 16 1 28 -3 25 -4 -2 -17 8 -29 23
-16 21 -23 24 -29 14 -6 -8 -11 -9 -15 -3 -3 6 4 14 16 18 l21 6 -24 14 c-28
16 -39 17 -57 5z"/>
<path d="M4690 3000 c0 -5 5 -10 11 -10 5 0 7 5 4 10 -3 6 -8 10 -11 10 -2 0
-4 -4 -4 -10z"/>
<path d="M4894 2998 c-5 -7 -3 -8 6 -3 7 4 16 2 21 -6 12 -18 11 -32 0 -24 -5
3 -12 1 -16 -4 -3 -6 4 -15 15 -21 17 -9 20 -8 20 7 0 10 3 29 5 43 5 22 4 22
-4 5 -8 -17 -10 -18 -10 -2 -1 19 -26 23 -37 5z"/>
<path d="M5287 3000 c21 -8 21 -10 5 -46 -17 -37 -17 -37 -20 -9 -2 16 2 32
10 36 10 7 9 9 -3 9 -9 0 -19 -6 -22 -13 -3 -8 -5 -101 -6 -209 0 -147 3 -195
12 -195 9 0 11 39 9 160 -3 159 6 210 27 156 7 -18 10 -19 10 -6 1 10 8 28 16
41 14 21 14 26 -2 55 -11 19 -26 31 -38 30 -19 0 -19 -1 2 -9z m33 -42 c0 -19
-18 -44 -25 -36 -4 3 0 15 7 27 15 24 18 26 18 9z"/>
<path d="M5519 3001 c9 -6 11 -18 8 -33 -8 -31 8 -59 17 -30 10 30 -3 72 -23
72 -13 0 -13 -2 -2 -9z"/>
<path d="M5550 2996 c0 -7 7 -13 15 -13 8 0 15 4 15 8 0 4 -7 9 -15 13 -9 3
-15 0 -15 -8z"/>
<path d="M8181 2989 c5 -11 12 -19 15 -19 3 0 2 5 -1 10 -3 6 1 10 9 10 9 0
16 4 16 9 0 5 -11 9 -25 9 -21 0 -23 -3 -14 -19z"/>
<path d="M3500 2990 c0 -5 7 -10 15 -10 10 0 14 -10 13 -35 -1 -39 -14 -47
-21 -12 -2 12 -5 -60 -6 -161 0 -111 3 -181 8 -177 5 3 7 22 5 43 -4 28 -3 33
5 22 9 -12 11 -11 11 8 0 14 -4 21 -11 17 -7 -5 -9 23 -8 84 1 50 6 91 10 91
5 0 7 -15 5 -32 -3 -18 -3 -27 0 -20 8 17 24 15 24 -2 0 -8 10 -17 23 -19 12
-2 4 -2 -18 0 -31 3 -37 1 -28 -8 6 -6 9 -18 6 -25 -3 -8 0 -14 6 -14 6 0 11
6 11 14 0 10 17 17 58 21 31 4 68 10 82 15 25 8 25 8 -5 11 -16 1 -50 1 -75 0
-63 -3 -75 21 -71 144 1 30 4 36 11 25 7 -10 10 -11 10 -2 0 7 -12 17 -26 22
-32 12 -34 12 -34 0z m30 -105 c0 -8 -4 -15 -10 -15 -5 0 -10 7 -10 15 0 8 5
15 10 15 6 0 10 -7 10 -15z"/>
<path d="M6053 2993 c9 -2 23 -2 30 0 6 3 -1 5 -18 5 -16 0 -22 -2 -12 -5z"/>
<path d="M8230 2968 c0 -24 -3 -29 -10 -18 -5 8 -13 11 -17 6 -4 -5 -2 -11 5
-13 6 -3 12 -11 12 -19 0 -8 6 -17 14 -20 8 -3 12 -14 9 -27 -3 -17 0 -15 13
8 12 21 19 26 22 16 3 -8 0 -17 -6 -19 -15 -5 -16 -62 -2 -62 6 0 10 6 9 13
-1 6 -1 21 0 32 1 17 3 18 11 5 13 -20 12 -10 -1 30 -10 26 -14 29 -21 17 -10
-19 -38 -12 -38 9 0 17 17 19 22 2 3 -7 7 -5 11 6 4 10 3 15 -3 11 -6 -3 -10
5 -10 19 0 14 -4 28 -10 31 -6 4 -10 -7 -10 -27z"/>
<path d="M2965 2979 c-4 -6 -4 -13 -1 -16 3 -4 6 0 6 8 0 11 2 11 10 -1 5 -8
10 -10 10 -3 0 6 10 9 23 7 20 -4 21 -4 2 5 -27 13 -43 13 -50 0z"/>
<path d="M3040 2975 c0 -8 -6 -15 -12 -16 -7 0 -2 -5 11 -10 20 -8 22 -11 10
-26 -12 -15 -12 -16 4 -10 11 4 16 3 12 -3 -3 -6 -1 -10 4 -10 6 0 11 11 11
25 0 14 -4 25 -10 25 -5 0 -10 7 -10 15 0 8 5 15 10 15 6 0 10 -4 10 -10 0 -5
4 -10 10 -10 5 0 7 7 4 15 -4 8 -17 15 -30 15 -15 0 -24 -6 -24 -15z"/>
<path d="M3108 2983 c6 -2 18 -2 25 0 6 3 1 5 -13 5 -14 0 -19 -2 -12 -5z"/>
<path d="M3571 2974 c0 -11 3 -14 6 -6 3 7 2 16 -1 19 -3 4 -6 -2 -5 -13z"/>
<path d="M3618 2983 c6 -2 18 -2 25 0 6 3 1 5 -13 5 -14 0 -19 -2 -12 -5z"/>
<path d="M3771 2974 c0 -11 3 -14 6 -6 3 7 2 16 -1 19 -3 4 -6 -2 -5 -13z"/>
<path d="M6088 2970 c-10 -11 -13 -22 -8 -25 6 -4 10 -1 10 5 0 18 16 3 49
-47 24 -36 31 -42 31 -25 0 12 -5 22 -11 22 -6 0 -8 8 -4 18 5 18 -27 72 -44
72 -3 0 -14 -9 -23 -20z m47 -16 c24 -37 11 -41 -15 -5 -12 17 -17 31 -12 31
5 0 17 -12 27 -26z"/>
<path d="M4650 2962 c0 -13 4 -21 9 -18 5 4 12 0 14 -6 3 -7 5 1 5 17 0 17 -2
24 -5 16 -5 -11 -7 -11 -14 0 -6 10 -9 8 -9 -9z"/>
<path d="M4692 2960 c0 -14 2 -19 5 -12 2 6 2 18 0 25 -3 6 -5 1 -5 -13z"/>
<path d="M6045 2970 c-13 -6 -15 -9 -5 -9 8 0 22 4 30 9 18 12 2 12 -25 0z"/>
<path d="M3698 2963 c12 -2 32 -2 45 0 12 2 2 4 -23 4 -25 0 -35 -2 -22 -4z"/>
<path d="M4951 2954 c0 -11 3 -14 6 -6 3 7 2 16 -1 19 -3 4 -6 -2 -5 -13z"/>
<path d="M7082 2948 c-7 -7 -12 -19 -11 -27 0 -14 1 -14 6 -1 4 8 13 20 22 27
9 7 11 13 6 13 -6 0 -16 -5 -23 -12z"/>
<path d="M7873 2945 c-25 -28 -19 -65 11 -65 22 0 23 2 16 36 -10 43 -12 45
-27 29z m15 -30 c-2 -26 -12 -32 -23 -15 -3 6 -1 10 4 10 6 0 11 7 11 15 0 8
2 15 5 15 3 0 4 -11 3 -25z"/>
<path d="M5564 2845 c0 -60 1 -84 3 -52 2 32 2 81 0 110 -2 29 -3 3 -3 -58z"/>
<path d="M8420 2919 c-1 -13 -7 -37 -15 -54 -13 -28 -14 -28 -11 -5 2 14 1 19
-1 12 -3 -7 -9 -10 -14 -7 -5 4 -5 -4 1 -19 6 -16 6 -27 0 -31 -6 -4 -10 -15
-10 -26 0 -10 -5 -19 -11 -19 -6 0 -8 9 -4 20 4 11 2 20 -4 20 -14 0 -14 -26
0 -51 9 -19 13 -15 39 38 16 32 30 66 30 76 0 10 4 16 9 13 4 -3 7 6 5 20 -3
34 -14 44 -14 13z"/>
<path d="M5337 2910 c-16 -16 -16 -19 -1 -49 9 -18 18 -30 21 -27 2 2 0 13 -6
24 -6 12 -11 27 -11 34 1 7 7 2 14 -11 11 -20 14 -21 19 -6 4 9 1 25 -6 34
-11 17 -13 17 -30 1z m31 -25 c-3 -3 -9 2 -12 12 -6 14 -5 15 5 6 7 -7 10 -15
7 -18z"/>
<path d="M8381 2908 c-13 -20 -12 -22 1 -11 8 7 18 10 22 6 4 -4 4 0 0 10 -8
21 -6 21 -23 -5z"/>
<path d="M4646 2904 c-3 -9 -2 -23 4 -32 7 -14 9 -10 10 16 0 35 -5 41 -14 16z"/>
<path d="M4909 2913 c0 -5 -2 -15 -3 -23 -1 -8 1 -28 5 -45 5 -25 7 -21 8 23
0 28 -1 52 -4 52 -3 0 -5 -3 -6 -7z"/>
<path d="M4929 2875 c0 -27 -4 -59 -8 -70 -9 -21 3 -55 20 -55 6 0 6 6 0 18
-11 21 -3 65 10 56 5 -3 9 0 9 5 0 6 -4 11 -10 11 -12 0 -14 27 -2 32 4 2 2
14 -5 28 -12 24 -13 22 -14 -25z"/>
<path d="M6460 2904 c0 -17 22 -14 28 4 2 7 -3 12 -12 12 -9 0 -16 -7 -16 -16z"/>
<path d="M6501 2904 c0 -11 3 -14 6 -6 3 7 2 16 -1 19 -3 4 -6 -2 -5 -13z"/>
<path d="M4070 2895 c0 -8 2 -15 4 -15 2 0 6 7 10 15 3 8 1 15 -4 15 -6 0 -10
-7 -10 -15z"/>
<path d="M3038 2734 c-2 -91 0 -168 5 -171 4 -2 7 0 7 6 0 6 6 9 13 7 6 -1 9
-1 5 1 -5 3 -8 76 -8 164 0 215 -18 209 -22 -7z"/>
<path d="M5281 2884 c0 -11 3 -14 6 -6 3 7 2 16 -1 19 -3 4 -6 -2 -5 -13z"/>
<path d="M4691 2874 c0 -11 3 -14 6 -6 3 7 2 16 -1 19 -3 4 -6 -2 -5 -13z"/>
<path d="M6135 2846 c3 -27 6 -67 6 -90 2 -35 3 -32 9 19 4 33 3 65 -1 70 -4
6 -9 19 -13 30 -3 11 -3 -2 -1 -29z"/>
<path d="M7275 2877 c-4 -10 -5 -21 -1 -24 10 -10 18 4 13 24 -4 17 -4 17 -12
0z"/>
<path d="M4671 2864 c0 -11 3 -14 6 -6 3 7 2 16 -1 19 -3 4 -6 -2 -5 -13z"/>
<path d="M5865 2867 c-4 -10 -5 -21 -1 -24 10 -10 18 4 13 24 -4 17 -4 17 -12
0z"/>
<path d="M4090 2805 c0 -42 -4 -65 -11 -65 -8 0 -10 17 -7 51 3 28 2 45 -2 38
-6 -9 -9 -7 -13 7 -2 10 -3 6 -1 -10 2 -16 4 -41 4 -57 0 -15 7 -35 16 -44 13
-13 15 -22 6 -48 -9 -29 -10 -30 -11 -7 -2 30 -21 66 -21 39 0 -23 21 -81 28
-75 3 3 20 -5 37 -19 22 -16 49 -25 83 -27 28 -2 48 0 46 4 -3 4 -14 8 -24 8
-10 0 -21 4 -24 9 -6 9 -46 22 -46 15 0 -3 10 -9 23 -14 22 -9 22 -9 1 -9 -24
-1 -48 21 -36 34 4 5 -1 5 -10 2 -10 -3 -20 -2 -23 3 -4 6 -2 10 4 10 7 0 7 9
-1 28 -6 15 -10 64 -9 110 1 45 0 82 -4 82 -3 0 -5 -29 -5 -65z"/>
<path d="M5376 2854 c-7 -19 12 -47 25 -38 5 3 4 -7 -1 -21 -14 -36 -12 -42 5
-19 26 34 17 61 -18 55 -5 -1 -6 8 -2 19 8 24 0 27 -9 4z"/>
<path d="M7322 2845 c0 -16 2 -22 5 -12 2 9 2 23 0 30 -3 6 -5 -1 -5 -18z"/>
<path d="M5284 2835 c-3 -13 -4 -30 -1 -37 3 -7 6 0 6 15 1 16 5 26 11 22 6
-3 10 1 10 9 0 25 -19 19 -26 -9z"/>
<path d="M8351 2843 c-1 -25 14 -39 25 -22 4 7 3 9 -4 5 -6 -3 -12 3 -15 16
-4 23 -4 23 -6 1z"/>
<path d="M6111 2834 c0 -11 3 -14 6 -6 3 7 2 16 -1 19 -3 4 -6 -2 -5 -13z"/>
<path d="M7296 2828 c-3 -13 -6 -38 -6 -55 0 -24 -5 -33 -17 -34 -11 0 -13 -3
-5 -6 6 -2 12 -12 12 -21 0 -15 2 -15 10 -2 7 11 9 6 7 -21 -2 -35 -27 -53
-27 -20 0 13 -2 14 -9 2 -9 -15 8 -43 21 -34 4 2 5 -3 2 -11 -5 -14 -8 -14
-21 -1 -18 19 -21 19 -39 0 -9 -8 -30 -16 -47 -16 -28 -2 -29 -2 -7 -7 23 -4
22 -6 -15 -18 -22 -7 -28 -11 -12 -9 15 3 37 0 48 -6 12 -6 19 -7 16 -2 -2 4
-1 17 4 28 7 19 8 19 8 -2 1 -13 6 -23 12 -23 5 0 7 5 4 10 -3 6 -1 10 6 10 8
0 8 4 -1 15 -15 18 1 20 18 3 10 -10 16 -8 31 7 13 14 20 40 24 90 3 46 1 63
-4 50 -6 -14 -8 -1 -5 38 5 60 2 72 -8 35z"/>
<path d="M8303 2834 c-9 -9 -9 -15 -2 -19 6 -4 8 -13 6 -19 -3 -7 -2 -19 3
-26 11 -18 24 45 13 64 -7 12 -10 12 -20 0z"/>
<path d="M4650 2817 c0 -16 3 -17 15 -7 8 7 15 16 15 20 0 3 -7 7 -15 7 -8 0
-15 -9 -15 -20z"/>
<path d="M4690 2826 c0 -9 5 -16 10 -16 6 0 10 4 10 9 0 6 -4 13 -10 16 -5 3
-10 -1 -10 -9z"/>
<path d="M4890 2805 c0 -22 -3 -26 -11 -18 -6 6 -18 9 -25 6 -8 -3 -14 0 -14
6 0 15 -88 11 -101 -5 -9 -11 -8 -14 5 -14 10 0 14 -4 11 -10 -3 -5 0 -10 8
-10 8 0 18 10 21 23 l6 22 15 -25 c8 -14 14 -19 15 -12 0 7 13 12 31 12 17 0
28 -4 24 -10 -3 -5 0 -7 9 -4 9 3 16 -2 19 -13 2 -10 3 1 2 25 -3 49 -15 70
-15 27z"/>
<path d="M5851 2782 c-3 -97 37 -184 87 -188 15 -1 19 0 10 3 -25 6 -23 27 2
20 27 -7 14 12 -16 23 -29 11 -40 38 -53 123 l-10 62 4 -59 c5 -70 -7 -65 -16
7 l-6 52 -2 -43z m60 -154 c11 -21 11 -22 -4 -9 -10 7 -17 17 -17 22 0 15 9
10 21 -13z"/>
<path d="M7024 2735 c0 -49 2 -78 4 -62 2 16 10 27 18 27 10 0 14 7 12 20 -2
12 -7 19 -13 18 -5 -2 -13 17 -16 42 -3 30 -5 15 -5 -45z"/>
<path d="M8281 2790 c14 -31 19 -36 19 -24 0 6 -7 19 -16 30 -14 18 -14 18 -3
-6z"/>
<path d="M5418 2772 c-14 -24 -15 -29 -1 -47 8 -11 19 -19 24 -17 5 1 9 -4 9
-12 0 -8 4 -17 9 -20 5 -4 7 3 4 14 -3 11 0 20 6 20 15 0 14 -33 -1 -48 -9 -9
-9 -12 1 -12 7 0 10 -3 8 -7 -3 -5 1 -13 8 -20 10 -9 15 -6 24 13 16 35 13 44
-4 14 l-15 -25 6 28 c7 32 -13 78 -32 75 -7 -2 -12 2 -11 7 1 6 5 9 9 8 4 -2
5 4 1 12 -4 13 -8 12 -23 -5 -23 -26 -33 -14 -13 16 9 14 14 27 11 29 -2 2
-11 -8 -20 -23z"/>
<path d="M7632 2775 c0 -16 2 -22 5 -12 2 9 2 23 0 30 -3 6 -5 -1 -5 -18z"/>
<path d="M4678 2775 c4 -5 10 -55 13 -110 l5 -100 2 97 c1 53 7 100 12 103 17
11 11 20 -14 20 -14 0 -21 -4 -18 -10z"/>
<path d="M7782 2775 c-11 -13 -8 -15 23 -15 32 0 35 2 21 15 -18 18 -27 18
-44 0z"/>
<path d="M7860 2776 c0 -20 11 -25 35 -15 13 5 15 8 5 8 -13 1 -13 2 0 11 12
8 9 10 -12 10 -18 0 -28 -5 -28 -14z"/>
<path d="M4644 2767 c3 -10 6 -23 6 -28 0 -6 5 -7 10 -4 6 4 10 -23 10 -75 0
-52 -4 -79 -10 -75 -5 3 -10 2 -10 -4 0 -17 18 -21 24 -5 3 9 6 48 6 87 0 58
-5 77 -21 97 -15 18 -19 20 -15 7z"/>
<path d="M5286 2764 c-9 -24 -7 -27 9 -10 17 17 19 26 6 26 -5 0 -12 -7 -15
-16z"/>
<path d="M8332 2673 c-1 -61 -6 -93 -14 -95 -9 -3 -9 -6 0 -12 7 -4 12 -3 12
3 0 6 8 8 18 5 11 -4 13 -3 5 3 -7 5 -13 43 -16 98 l-3 90 -2 -92z"/>
<path d="M4928 2658 l-2 -83 -6 80 -5 80 -5 -82 c-3 -45 -3 -80 -1 -77 2 2 10
-1 18 -7 11 -9 13 5 13 80 0 50 -2 91 -5 91 -3 0 -6 -37 -7 -82z"/>
<path d="M5537 2719 c4 -13 8 -18 11 -10 2 7 -1 18 -6 23 -8 8 -9 4 -5 -13z"/>
<path d="M6114 2713 c3 -18 1 -35 -4 -38 -6 -3 -9 -20 -7 -38 2 -30 0 -32 -30
-29 -17 2 -34 -2 -39 -9 -5 -9 -2 -10 11 -6 11 5 22 1 31 -10 12 -17 13 -17
19 0 4 9 13 17 21 17 7 0 11 6 8 14 -3 8 2 16 13 19 15 3 14 6 -7 15 -14 6
-20 11 -15 11 15 1 17 49 4 69 -8 13 -9 10 -5 -15z"/>
<path d="M6167 2726 c-4 -10 -7 -25 -6 -34 0 -11 4 -9 10 7 5 13 8 29 6 35 -2
5 -6 2 -10 -8z"/>
<path d="M7850 2725 c0 -8 5 -15 10 -15 6 0 10 7 10 15 0 8 -4 15 -10 15 -5 0
-10 -7 -10 -15z"/>
<path d="M7881 2724 c0 -11 3 -14 6 -6 3 7 2 16 -1 19 -3 4 -6 -2 -5 -13z"/>
<path d="M5563 2660 c0 -41 2 -58 4 -37 2 20 2 54 0 75 -2 20 -4 3 -4 -38z"/>
<path d="M7901 2694 c0 -11 3 -14 6 -6 3 7 2 16 -1 19 -3 4 -6 -2 -5 -13z"/>
<path d="M4304 2685 c-4 -11 -9 -24 -11 -30 -3 -5 3 -1 11 9 15 18 16 18 16 2
0 -9 4 -15 9 -12 5 4 7 -4 3 -16 -5 -21 -6 -21 -13 -2 -7 18 -8 18 -8 0 -1
-15 -4 -16 -15 -7 -10 8 -16 9 -21 1 -3 -5 -18 -11 -33 -11 -24 -2 -24 -2 -4
-6 12 -2 22 -9 22 -14 0 -17 20 -9 20 9 1 16 1 16 14 0 12 -16 14 -16 35 6 22
23 36 86 19 86 -4 0 -8 -8 -8 -17 0 -15 -2 -14 -14 3 -14 19 -15 19 -22 -1z"/>
<path d="M3542 2670 c0 -14 2 -19 5 -12 2 6 2 18 0 25 -3 6 -5 1 -5 -13z"/>
<path d="M6471 2676 c-13 -16 10 -41 31 -33 8 3 5 6 -6 6 -13 1 -17 6 -13 21
6 24 4 25 -12 6z"/>
<path d="M6140 2671 c0 -6 4 -13 10 -16 6 -3 7 1 4 9 -7 18 -14 21 -14 7z"/>
<path d="M7038 2655 c-5 -23 0 -34 24 -57 17 -15 35 -28 42 -28 6 0 3 5 -6 11
-10 5 -18 15 -18 21 0 9 3 9 12 0 7 -7 18 -12 26 -12 8 0 -3 14 -24 31 -22 17
-42 38 -45 47 -4 12 -7 8 -11 -13z m32 -36 c0 -14 -17 -10 -23 5 -4 10 -1 13
9 9 7 -3 14 -9 14 -14z"/>
<path d="M7060 2666 c0 -9 5 -16 10 -16 6 0 10 4 10 9 0 6 -4 13 -10 16 -5 3
-10 -1 -10 -9z"/>
<path d="M3536 2614 c-7 -27 3 -50 11 -26 3 6 19 13 36 13 27 2 28 2 7 6 -14
2 -30 11 -36 19 -10 12 -13 10 -18 -12z"/>
<path d="M6075 2630 c-3 -5 -1 -10 4 -10 6 0 11 5 11 10 0 6 -2 10 -4 10 -3 0
-8 -4 -11 -10z"/>
<path d="M5534 2605 c-3 -14 -10 -25 -16 -25 -5 0 -7 10 -3 23 5 20 5 20 -6 3
-9 -14 -8 -21 4 -34 13 -13 20 -13 39 -3 13 6 16 10 7 7 -12 -3 -14 2 -11 25
5 36 -5 38 -14 4z"/>
<path d="M5993 2613 c-10 -3 -9 -8 3 -20 8 -8 18 -12 22 -8 4 4 1 10 -6 12 -6
3 -10 9 -6 14 6 10 5 10 -13 2z"/>
<path d="M6493 2613 c-9 -3 -7 -11 7 -26 16 -17 23 -18 33 -8 6 7 8 12 2 11
-22 -5 -27 1 -15 15 10 12 10 15 -1 14 -8 0 -19 -3 -26 -6z"/>
<path d="M6720 2610 c0 -6 7 -10 15 -10 8 0 15 2 15 4 0 2 -7 6 -15 10 -8 3
-15 1 -15 -4z"/>
<path d="M7838 2598 c-10 -10 -13 -18 -7 -18 14 0 41 28 32 33 -5 2 -16 -4
-25 -15z"/>
<path d="M3668 2603 c6 -2 18 -2 25 0 6 3 1 5 -13 5 -14 0 -19 -2 -12 -5z"/>
<path d="M3715 2600 c3 -5 -2 -10 -12 -10 -17 -1 -17 -1 0 -11 11 -7 23 -7 35
0 14 8 14 11 2 12 -8 1 -1 5 15 9 30 8 30 8 -8 9 -23 1 -36 -3 -32 -9z"/>
<path d="M4100 2601 c0 -5 7 -12 16 -15 14 -5 15 -4 4 9 -14 17 -20 19 -20 6z"/>
<path d="M4951 2574 c0 -11 3 -14 6 -6 3 7 2 16 -1 19 -3 4 -6 -2 -5 -13z"/>
<path d="M5978 2583 c6 -2 10 -9 6 -14 -3 -5 12 -8 33 -8 27 1 31 3 13 6 -14
3 -29 9 -34 14 -6 5 -15 9 -20 8 -6 0 -5 -3 2 -6z"/>
<path d="M6702 2585 c10 -11 48 -14 53 -4 4 5 -8 9 -26 9 -18 0 -30 -2 -27 -5z"/>
<path d="M4208 2563 c7 -3 16 -2 19 1 4 3 -2 6 -13 5 -11 0 -14 -3 -6 -6z"/>
<path d="M7718 2563 c7 -3 16 -2 19 1 4 3 -2 6 -13 5 -11 0 -14 -3 -6 -6z"/>
</g>
</svg>
